<svg xmlns="http://www.w3.org/2000/svg" width="100" height="100" viewBox="0 0 100 100"><g transform="translate(-820 -143)"><rect width="100" height="100" transform="translate(820 143)" fill="#f7f7f7" opacity="0.002"/><path d="M-258-228c13.146,0,20.454,0,25.227-4.773S-228-244.854-228-258s0-20.454-4.773-25.227S-244.854-288-258-288s-20.454,0-25.227,4.773S-288-271.146-288-258s0,20.454,4.773,25.227S-271.146-228-258-228Z" transform="translate(1128.5 451.5)" fill="#fff"/><path d="M16.686,122.353v-7.012H21.5v4.077H18.034v2.935Zm1.348-4.077h2.2v-1.733h-2.2Zm-9.069,4.077v-7.012H13.78v7.012Zm1.348-1.2h2.2v-4.609h-2.2Zm-5.519,1.2-1.729-2.935H2.592v2.935H1.244v-7.012H6.059v4.077H4.413l1.646,2.935Zm-2.2-4.077h2.2v-1.733h-2.2Zm-9.068,4.077v-7.012h4.814v4.077H-5.129v2.935Zm1.347-4.077h2.2v-1.733h-2.2Zm21.816-7.187v-7.011H21.5v1.2H18.035v1.733H21.5v1.143H18.035v1.733H21.5v1.2Zm-5.791,0v-7.011h1.347v5.81H15.71v1.2Zm-2.241,0v-2.934h-2.2v2.934H5.1v-7.011H9.92v7.011Zm-2.2-4.077h2.2v-1.733h-2.2Zm-7.139,4.077v-7.011H4.128v1.2H.662v4.61H4.128v1.2Zm-5.791,0v-1.2h3.55v-1.733h-3.55v-4.077h4.814v1.2H-5.129v1.733h3.467v4.077Z" transform="translate(862.476 80.922)" fill="#3f3f3f" stroke="rgba(0,0,0,0)" stroke-miterlimit="10" stroke-width="1"/></g></svg>