<svg xmlns="http://www.w3.org/2000/svg" width="100" height="100" viewBox="0 0 100 100"><g transform="translate(-1150 -143)"><rect width="100" height="100" transform="translate(1150 143)" fill="#f7f7f7" opacity="0"/><path d="M-87,168c-13.189,0-20.453,0-25.227-4.774S-117,151.189-117,138q0-1.287,0-2.5a90.046,90.046,0,0,0,.72,14.036c.667,3.876,1.917,6.556,4.052,8.691C-107.454,163-100.189,163-87,163s20.454,0,25.227-4.773c2.135-2.135,3.385-4.816,4.052-8.691A90.119,90.119,0,0,0-57,135.5q0,1.213,0,2.5c0,13.189,0,20.454-4.774,25.227S-73.811,168-87,168Z" transform="translate(1287 60)" fill="#3f3f3f" opacity="0.283"/></g></svg>